<svg width="697" height="841" viewBox="0 0 697 841" fill="none" xmlns="http://www.w3.org/2000/svg">
<g filter="url(#filter0_d_8_12)">
<g filter="url(#filter1_d_8_12)">
<path d="M4 330H171V664.5H436.5C508.911 664.5 564 569.5 495.467 521C561.5 507.5 604 486 645 437C731.5 590 684 797.5 456.089 833H4V330Z" fill="#F69420"/>
</g>
<g filter="url(#filter2_d_8_12)">
<path d="M102 0H483C777.644 97.2175 746.186 448.456 485.281 500.553C483.791 500.851 482.235 501 480.717 501H185.5L289.5 331.5H466C541 304.5 549.5 210.5 466 168H4L102 0Z" fill="#EE1C25"/>
</g>
</g>
<defs>
<filter id="filter0_d_8_12" x="0" y="0" width="696.615" height="841" filterUnits="userSpaceOnUse" color-interpolation-filters="sRGB">
<feFlood flood-opacity="0" result="BackgroundImageFix"/>
<feColorMatrix in="SourceAlpha" type="matrix" values="0 0 0 0 0 0 0 0 0 0 0 0 0 0 0 0 0 0 127 0" result="hardAlpha"/>
<feOffset dy="4"/>
<feGaussianBlur stdDeviation="2"/>
<feComposite in2="hardAlpha" operator="out"/>
<feColorMatrix type="matrix" values="0 0 0 0 0 0 0 0 0 0 0 0 0 0 0 0 0 0 0.25 0"/>
<feBlend mode="normal" in2="BackgroundImageFix" result="effect1_dropShadow_8_12"/>
<feBlend mode="normal" in="SourceGraphic" in2="effect1_dropShadow_8_12" result="shape"/>
</filter>
<filter id="filter1_d_8_12" x="0" y="330" width="689.436" height="511" filterUnits="userSpaceOnUse" color-interpolation-filters="sRGB">
<feFlood flood-opacity="0" result="BackgroundImageFix"/>
<feColorMatrix in="SourceAlpha" type="matrix" values="0 0 0 0 0 0 0 0 0 0 0 0 0 0 0 0 0 0 127 0" result="hardAlpha"/>
<feOffset dy="4"/>
<feGaussianBlur stdDeviation="2"/>
<feComposite in2="hardAlpha" operator="out"/>
<feColorMatrix type="matrix" values="0 0 0 0 0 0 0 0 0 0 0 0 0 0 0 0 0 0 0.25 0"/>
<feBlend mode="normal" in2="BackgroundImageFix" result="effect1_dropShadow_8_12"/>
<feBlend mode="normal" in="SourceGraphic" in2="effect1_dropShadow_8_12" result="shape"/>
</filter>
<filter id="filter2_d_8_12" x="0" y="0" width="696.615" height="509" filterUnits="userSpaceOnUse" color-interpolation-filters="sRGB">
<feFlood flood-opacity="0" result="BackgroundImageFix"/>
<feColorMatrix in="SourceAlpha" type="matrix" values="0 0 0 0 0 0 0 0 0 0 0 0 0 0 0 0 0 0 127 0" result="hardAlpha"/>
<feOffset dy="4"/>
<feGaussianBlur stdDeviation="2"/>
<feComposite in2="hardAlpha" operator="out"/>
<feColorMatrix type="matrix" values="0 0 0 0 0 0 0 0 0 0 0 0 0 0 0 0 0 0 0.25 0"/>
<feBlend mode="normal" in2="BackgroundImageFix" result="effect1_dropShadow_8_12"/>
<feBlend mode="normal" in="SourceGraphic" in2="effect1_dropShadow_8_12" result="shape"/>
</filter>
</defs>
</svg>
